<svg width="23" height="20" viewBox="0 0 23 20" fill="none" xmlns="http://www.w3.org/2000/svg">
<g clip-path="url(#clip0_3_127)">
<path d="M17.1648 14.95C15.5293 16.0358 13.5377 16.6374 11.4815 16.6667C4.78395 16.6667 0.956787 9.99999 0.956787 9.99999C2.14693 8.06824 3.79763 6.3805 5.79814 5.04999M9.47222 3.53333C10.1308 3.39906 10.8051 3.33194 11.4815 3.33333C18.179 3.33333 22.0062 9.99999 22.0062 9.99999C21.4254 10.9463 20.7327 11.8373 19.9395 12.6583M13.5099 11.7667C13.2471 12.0123 12.9302 12.2093 12.5781 12.3459C12.226 12.4826 11.8459 12.556 11.4605 12.562C11.0751 12.5679 10.6923 12.5061 10.3349 12.3804C9.97746 12.2547 9.65279 12.0675 9.38022 11.8301C9.10765 11.5927 8.89278 11.3099 8.74842 10.9987C8.60405 10.6874 8.53315 10.3539 8.53995 10.0183C8.54675 9.68258 8.63111 9.35153 8.788 9.04487C8.94488 8.7382 9.17107 8.4622 9.45308 8.23333M0.956787 0.833328L22.0062 19.1667" stroke="#D9D9D9" stroke-width="1.5" stroke-linecap="round" stroke-linejoin="round"/>
</g>
<defs>
<clipPath id="clip0_3_127">
<rect width="22.963" height="20" fill="white"/>
</clipPath>
</defs>
</svg>
